<?xml version="1.0" encoding="UTF-8"?>
<svg version="1.1" xmlns="http://www.w3.org/2000/svg" width="128" height="128">
<path d="M0 0 C0.82915421 -0.00807175 1.65830841 -0.01614349 2.5125885 -0.02445984 C4.27017138 -0.03827798 6.02778083 -0.04901027 7.78540039 -0.05688477 C9.56087252 -0.06833734 11.33631208 -0.08868093 13.11157227 -0.1184082 C23.91784976 -0.29913545 33.38053862 0.02410078 43.53515625 4.23828125 C44.22730225 4.52517822 44.91944824 4.8120752 45.63256836 5.10766602 C61.87240641 12.54618544 73.10399095 26.01100632 79.39379883 42.48754883 C81.66318832 49.19497496 82.04084212 55.50508649 81.97265625 62.55078125 C81.96435791 63.65510498 81.95605957 64.75942871 81.94750977 65.8972168 C81.5777996 83.73408783 74.32231011 97.78645485 61.53515625 110.23828125 C46.61201248 123.93873047 28.92796323 126.29255249 9.52197266 125.4765625 C-6.78410524 124.17570162 -20.54303463 114.12448137 -31.00048828 102.11523438 C-35.17478403 96.7647866 -38.0346906 90.54189178 -40.46484375 84.23828125 C-40.88987183 83.23341675 -40.88987183 83.23341675 -41.32348633 82.20825195 C-44.27150619 74.19127813 -43.95269986 65.85167396 -43.91088867 57.42553711 C-43.90237241 54.80958438 -43.9312219 52.19581662 -43.96289062 49.58007812 C-44.02686401 34.59800954 -41.03347597 23.56569084 -30.65625 12.26953125 C-21.93135611 3.99811418 -11.82444144 0.11033448 0 0 Z " fill="#FED15B" transform="translate(44.46484375,0.76171875)"/>
<path d="M0 0 C7.9729187 4.84995235 13.41074099 10.23962417 18.1640625 18.31640625 C18.70740234 19.23486328 18.70740234 19.23486328 19.26171875 20.171875 C22.70272454 27.42199418 22.24030854 37.55017379 20.5078125 45.22265625 C19.58040906 47.74903115 18.49718607 49.97947237 17.1640625 52.31640625 C16.6896875 53.16847656 16.2153125 54.02054688 15.7265625 54.8984375 C10.46366739 63.33678134 2.32457687 69.12521271 -7.26171875 71.87890625 C-18.38179187 73.76881246 -28.07571981 72.87023397 -37.45703125 66.55078125 C-45.45019647 60.51730736 -52.16778623 53.49075038 -53.8359375 43.31640625 C-54.68057401 33.88119843 -55.15843723 24.53036776 -49.8359375 16.31640625 C-49.2378125 15.28515625 -48.6396875 14.25390625 -48.0234375 13.19140625 C-37.02041483 -1.26970926 -17.20356218 -8.48354355 0 0 Z " fill="#78C9EE" transform="translate(61.8359375,10.68359375)"/>
<path d="M0 0 C2.39283902 2.39283902 3.00367728 4.3989055 4.1875 7.5625 C8.8192418 18.85152666 16.57334651 27.40714335 27.8125 32.4375 C39.60193393 36.25124093 53.09561015 35.34889789 64.37109375 30.484375 C67.17349285 28.9020397 69.5502027 27.08077157 72 25 C74.89354712 26.29710733 76.96230434 27.55483638 79 30 C79.37451172 31.89038086 79.37451172 31.89038086 79.5546875 34.02734375 C80.90594739 40.93051927 86.18380844 44.9305577 91.125 49.5625 C92.54232422 50.93245117 92.54232422 50.93245117 93.98828125 52.33007812 C96.31042601 54.57012685 98.6472921 56.79214759 101 59 C97.68051092 62.47151988 94.57308727 64.48233448 90.25 66.625 C88.49429688 67.51058594 88.49429688 67.51058594 86.703125 68.4140625 C73.46653637 74.38412362 55.33773339 74.23067297 41.625 69.9375 C24.79240188 63.12520412 12.10113091 51.51458129 4.5859375 35.01953125 C1.09187628 26.49961921 -0.44022307 19.102632 -0.1875 9.875 C-0.17396484 8.91851562 -0.16042969 7.96203125 -0.14648438 6.9765625 C-0.11159222 4.6504189 -0.06258339 2.3255347 0 0 Z " fill="#FED15C" transform="translate(1,54)"/>
<path d="M0 0 C1.27423828 0.67095703 1.27423828 0.67095703 2.57421875 1.35546875 C14.40391958 7.95110165 20.75200381 17.25601142 25 30 C26.24887015 42.75744568 25.87852256 55.2923688 17.828125 65.84765625 C17.22484375 66.55792969 16.6215625 67.26820312 16 68 C16.28875 68.5775 16.5775 69.155 16.875 69.75 C17.91666667 71.83333333 18.95833333 73.91666667 20 76 C19.01 76.99 18.02 77.98 17 79 C14.33333333 77.66666667 11.66666667 76.33333333 9 75 C8.28972656 75.60328125 7.57945313 76.2065625 6.84765625 76.828125 C-3.61165133 84.8053198 -16.33955948 85.61127964 -29 84 C-40.0260754 81.2288032 -49.48723897 74.27671327 -56 65 C-57.90135522 61.41861134 -59.49779143 57.7639608 -61 54 C-61.36738281 53.24332031 -61.73476563 52.48664062 -62.11328125 51.70703125 C-65.01116293 42.86019421 -64.00176177 30.86631114 -60.32421875 22.453125 C-53.55738969 9.91752427 -45.0823738 2.56935342 -32 -3 C-21.83365436 -5.95022857 -9.2013822 -5.20498503 0 0 Z M-49.6328125 17.859375 C-54.76028822 24.55272654 -56.55017015 31.59330008 -56.4375 39.875 C-56.42920166 40.66511475 -56.42090332 41.45522949 -56.41235352 42.26928711 C-56.11164741 52.68056721 -52.27169523 60.5343929 -45 68 C-34.43953061 76.87217249 -25.7613723 79.05627831 -12 78 C-2.65976898 76.43151945 6.36799541 70.77252125 11.9375 63.1875 C13.00013726 61.4837042 14.02324534 59.75444247 15 58 C15.433125 57.24074219 15.86625 56.48148438 16.3125 55.69921875 C20.2566213 47.5507737 20.25985151 37.84256138 18.375 29.1015625 C14.69837056 18.69538811 6.69371716 10.22431652 -2.87109375 4.97265625 C-20.40122428 -2.44262314 -37.79951464 4.38413629 -49.6328125 17.859375 Z " fill="#C69969" transform="translate(64,5)"/>
<path d="M0 0 C1.47668858 0.0133035 2.95331108 0.03716415 4.4296875 0.0703125 C5.18378906 0.07933594 5.93789063 0.08835937 6.71484375 0.09765625 C8.57826004 0.1212438 10.44151343 0.15711531 12.3046875 0.1953125 C12.3046875 2.8353125 12.3046875 5.4753125 12.3046875 8.1953125 C8.3446875 8.1953125 4.3846875 8.1953125 0.3046875 8.1953125 C0.35689453 11.14017578 0.35689453 11.14017578 0.41015625 14.14453125 C0.43829536 16.72394978 0.46559539 19.30337756 0.4921875 21.8828125 C0.51732422 23.17638672 0.54246094 24.46996094 0.56835938 25.80273438 C0.57802734 27.04990234 0.58769531 28.29707031 0.59765625 29.58203125 C0.6133667 30.72889404 0.62907715 31.87575684 0.64526367 33.05737305 C0.26508273 36.56021577 -0.61567194 38.381975 -2.6953125 41.1953125 C-5.45414581 43.35764131 -7.21073353 44.13474013 -10.6953125 44.5703125 C-15.22681328 44.0038749 -17.65535527 42.48629388 -20.5078125 38.9453125 C-22.05951067 35.35190621 -22.24039287 33.07901013 -21.6953125 29.1953125 C-19.90181871 26.22608389 -17.84627108 23.77079179 -14.6953125 22.1953125 C-8.16197917 21.96197917 -8.16197917 21.96197917 -5.6953125 23.1953125 C-5.70578613 22.56963379 -5.71625977 21.94395508 -5.72705078 21.29931641 C-5.76854441 18.4730224 -5.79461723 15.64679239 -5.8203125 12.8203125 C-5.84544922 11.34304687 -5.84544922 11.34304687 -5.87109375 9.8359375 C-5.87753906 8.89492188 -5.88398437 7.95390625 -5.890625 6.984375 C-5.90109863 6.11506348 -5.91157227 5.24575195 -5.92236328 4.35009766 C-5.49403436 0.28511802 -3.85097498 0.2035399 0 0 Z " fill="#ED3474" transform="translate(50.6953125,20.8046875)"/>
<path d="M0 0 C3.06887268 1.91028704 5.45499301 4.4509661 8 7 C9.21701036 8.14898085 10.43592147 9.29595022 11.65625 10.44140625 C12.95980428 11.68856852 14.26187695 12.93728115 15.5625 14.1875 C16.20711182 14.79352051 16.85172363 15.39954102 17.51586914 16.02392578 C18.11004639 16.60770996 18.70422363 17.19149414 19.31640625 17.79296875 C19.85724854 18.3139917 20.39809082 18.83501465 20.95532227 19.37182617 C22 21 22 21 21.77441406 23.06445312 C20.71935186 25.7014434 19.17543323 27.29506127 17.1875 29.3125 C16.50042969 30.03050781 15.81335938 30.74851562 15.10546875 31.48828125 C13 33 13 33 11.15039062 32.85595703 C8.26564158 31.70769067 6.66821528 30.02284404 4.48828125 27.81640625 C3.64845703 26.97142578 2.80863281 26.12644531 1.94335938 25.25585938 C1.07517578 24.36705078 0.20699219 23.47824219 -0.6875 22.5625 C-1.56728516 21.67755859 -2.44707031 20.79261719 -3.35351562 19.88085938 C-10.88352208 12.25796155 -10.88352208 12.25796155 -11.3125 7.625 C-11 4 -11 4 -9.4375 1.5625 C-5.90550465 -0.70159958 -4.13858566 -0.7587407 0 0 Z " fill="#FE515C" transform="translate(91,80)"/>
<path d="M0 0 C0.66 0.33 1.32 0.66 2 1 C2.00902344 1.97582031 2.01804687 2.95164062 2.02734375 3.95703125 C2.73517523 10.05060467 8.31302714 13.76138976 12.5625 17.6875 C14.34339329 19.34873355 16.11599078 21.01891912 17.87890625 22.69921875 C18.6685376 23.42971436 19.45816895 24.16020996 20.27172852 24.9128418 C22 27 22 27 22 31 C18.04611042 30.45105157 16.24548866 28.60713594 13.48828125 25.81640625 C12.64845703 24.97142578 11.80863281 24.12644531 10.94335938 23.25585938 C10.07517578 22.36705078 9.20699219 21.47824219 8.3125 20.5625 C7.43271484 19.67755859 6.55292969 18.79261719 5.64648438 17.88085938 C-1.93542396 10.2054194 -1.93542396 10.2054194 -2.1875 5.5 C-2 2 -2 2 0 0 Z " fill="#ED3F51" transform="translate(82,82)"/>
<path d="M0 0 C3.96 0 7.92 0 12 0 C12 2.64 12 5.28 12 8 C8.04 8 4.08 8 0 8 C0 5.36 0 2.72 0 0 Z " fill="#CC1345" transform="translate(51,21)"/>
<path d="M0 0 C2.62187494 1.04874998 3.79371361 1.64931313 5.25 4.125 C5.4975 4.74375 5.745 5.3625 6 6 C5.01 6.99 4.02 7.98 3 9 C0.37812506 7.95125002 -0.79371361 7.35068687 -2.25 4.875 C-2.4975 4.25625 -2.745 3.6375 -3 3 C-2.01 2.01 -1.02 1.02 0 0 Z " fill="#525A71" transform="translate(78,75)"/>
<path d="M0 0 C1.32 0.66 2.64 1.32 4 2 C3.67 2.99 3.34 3.98 3 5 C1.68 4.34 0.36 3.68 -1 3 C-0.67 2.01 -0.34 1.02 0 0 Z " fill="#5D5E6F" transform="translate(78,77)"/>
</svg>
