<?xml version="1.0" encoding="UTF-8"?>
<svg version="1.1" xmlns="http://www.w3.org/2000/svg" width="128" height="128">
<path d="M0 0 C0.82728104 -0.00428513 1.65456207 -0.00857025 2.50691223 -0.01298523 C4.25077403 -0.0187018 5.99465966 -0.01924861 7.73852539 -0.01489258 C10.36973122 -0.01174839 12.99979344 -0.03516999 15.63085938 -0.06054688 C34.89016934 -0.13603065 50.97580658 4.56904575 65.19555664 18.02148438 C76.72152614 29.56526836 83.36319391 45.07378273 83.53710938 61.30444336 C83.41274019 81.17760333 78.35093895 97.44454861 64.0625 111.7109375 C48.42957696 125.88963514 31.17453162 129.12389404 10.83789062 128.43994141 C-5.53442863 127.57392229 -19.99399919 118.13200525 -30.79296875 106.30078125 C-38.30463467 97.07395162 -44.75556466 84.46999846 -44.98583984 72.28930664 C-45.00190277 71.51071793 -45.0179657 70.73212921 -45.03451538 69.9299469 C-45.0795889 66.35199331 -45.12009159 62.77421754 -45.14306641 59.19604492 C-45.15952744 57.32352179 -45.18668511 55.45105888 -45.22509766 53.57885742 C-45.54603881 37.82343751 -44.08543233 25.32493793 -32.79296875 13.30078125 C-23.93121912 4.14573494 -12.54529072 -0.01467191 0 0 Z " fill="#FED05C" transform="translate(44.79296875,-0.30078125)"/>
<path d="M0 0 C8.53362573 6.96301977 14.76336672 16.23995382 16.05859375 27.37890625 C16.29057263 39.15524602 13.33511023 49.18513968 5.625 58.2578125 C-2.26752252 66.11851033 -12.22119643 70.3238507 -23.3125 70.6875 C-35.91372805 70.26057315 -44.96707924 64.96723285 -53.5625 56 C-61.14088262 46.38942539 -62.49934087 35.98883627 -61.55615234 24.14746094 C-61.0314236 19.92649669 -59.58876064 16.7267642 -57.3125 13.1875 C-56.91160156 12.445 -56.51070312 11.7025 -56.09765625 10.9375 C-52.19949872 4.24848766 -46.8411952 0.20661005 -40.3125 -3.8125 C-39.68859375 -4.19664063 -39.0646875 -4.58078125 -38.421875 -4.9765625 C-26.65054764 -10.65013019 -10.18236872 -7.13914198 0 0 Z " fill="#78C8EC" transform="translate(68.3125,13.8125)"/>
<path d="M0 0 C2.34114382 2.34114382 2.7545417 3.99017957 3.75 7.125 C5.41657414 11.91718676 7.48575581 15.46652339 10.73046875 19.34375 C12 21 12 21 13 24 C14.81088293 25.06760029 14.81088293 25.06760029 17 26 C19.40399021 27.46774232 21.7894495 28.96237864 24.171875 30.46484375 C31.00959145 34.17647713 36.90605435 35.55702892 44.6875 35.5 C45.56164551 35.49645508 46.43579102 35.49291016 47.33642578 35.48925781 C57.34823406 35.23486092 66.01864677 32.15704392 74 26 C76.89354712 27.29710733 78.96230434 28.55483638 81 31 C81.37451172 32.89038086 81.37451172 32.89038086 81.5546875 35.02734375 C82.90594739 41.93051927 88.18380844 45.9305577 93.125 50.5625 C94.54232422 51.93245117 94.54232422 51.93245117 95.98828125 53.33007812 C98.31042601 55.57012685 100.6472921 57.79214759 103 60 C101.61250607 64.1624818 98.81074048 65.0776334 95.125 67 C94.50625 67.34289062 93.8875 67.68578125 93.25 68.0390625 C84.06356696 72.91121929 74.88504221 74.52782364 64.5625 74.375 C63.551875 74.36339844 62.54125 74.35179687 61.5 74.33984375 C44.00206081 73.95601799 29.00109931 67.31843174 16.65625 54.91015625 C7.37075402 44.73707609 -0.179818 30.92869547 -0.09765625 16.796875 C-0.09443359 15.8171875 -0.09121094 14.8375 -0.08789062 13.828125 C-0.07951172 12.81234375 -0.07113281 11.7965625 -0.0625 10.75 C-0.05798828 9.71875 -0.05347656 8.6875 -0.04882812 7.625 C-0.03706088 5.08327427 -0.02062011 2.54166681 0 0 Z " fill="#FED05C" transform="translate(0,54)"/>
<path d="M0 0 C9.79661796 6.67592111 17.43407797 16.34719244 19.96875 28.16796875 C21.3000183 42.55072184 20.05093767 55.39476251 10.96875 67.16796875 C11.2575 67.74546875 11.54625 68.32296875 11.84375 68.91796875 C12.88541667 71.00130208 13.92708333 73.08463542 14.96875 75.16796875 C13.97875 76.15796875 12.98875 77.14796875 11.96875 78.16796875 C7.96875 76.16796875 7.96875 76.16796875 6.12109375 74.9296875 C3.92681817 73.87481798 3.92681817 73.87481798 1.70703125 75.1796875 C0.50626953 76.00919922 0.50626953 76.00919922 -0.71875 76.85546875 C-8.35338941 82.09100707 -15.82097471 83.7161592 -24.96875 83.60546875 C-25.84829346 83.59789551 -26.72783691 83.59032227 -27.6340332 83.58251953 C-34.12583265 83.4174993 -39.39755419 82.57122366 -45.03125 79.16796875 C-45.82789062 78.69746094 -46.62453125 78.22695312 -47.4453125 77.7421875 C-51.81573762 74.98753844 -55.60186347 72.06078589 -59.03125 68.16796875 C-59.51207031 67.62914063 -59.99289063 67.0903125 -60.48828125 66.53515625 C-69.29805419 55.87421583 -71.41685654 43.83637971 -70.31787109 30.39941406 C-68.82007597 18.73855595 -61.98466305 8.79601077 -52.98046875 1.51171875 C-36.64625174 -9.74874347 -16.8600003 -10.18987131 0 0 Z M-54.03125 12.16796875 C-62.53084325 23.24414849 -64.45692422 33.53609654 -63.03125 47.16796875 C-60.62648998 57.60416027 -53.87688013 66.1730701 -45.03125 72.10546875 C-43.71843318 72.83137923 -42.38440359 73.5203505 -41.03125 74.16796875 C-40.03738281 74.64363281 -40.03738281 74.64363281 -39.0234375 75.12890625 C-30.03292733 78.74501551 -20.2453923 78.30438409 -11.21875 75.10546875 C0.44213939 70.04106788 7.43178376 62.63569178 12.34375 50.98046875 C15.46957831 41.58985008 15.10592156 31.81947107 11.296875 22.69921875 C5.49614982 11.643719 -3.04498273 4.48934367 -14.79296875 0.58203125 C-30.02336863 -2.23545983 -43.02837052 1.09136813 -54.03125 12.16796875 Z " fill="#C59B6B" transform="translate(70.03125,6.83203125)"/>
<path d="M0 0 C0.12397147 4.46564301 0.21450992 8.93036439 0.2746582 13.3972168 C0.29974109 14.91529801 0.3338166 16.43325918 0.37719727 17.95092773 C0.43813293 20.13815965 0.46626895 22.32379039 0.48828125 24.51171875 C0.51446533 25.82615967 0.54064941 27.14060059 0.56762695 28.49487305 C-0.14295255 32.88273966 -1.48874007 34.35359808 -5 37 C-8.51955419 37 -10.84920059 36.63108355 -13.9375 34.9375 C-15.69366901 31.73507415 -15.62026592 28.50309274 -15 25 C-13.4375 22.5 -13.4375 22.5 -11 21 C-7.25 20.75 -7.25 20.75 -4 21 C-4 17.7 -4 14.4 -4 11 C-5.61068359 11.41572266 -5.61068359 11.41572266 -7.25390625 11.83984375 C-8.69005529 12.20592096 -10.12625599 12.57179558 -11.5625 12.9375 C-12.26697266 13.11990234 -12.97144531 13.30230469 -13.69726562 13.49023438 C-18.12137098 14.6115514 -22.47055438 15.43456329 -27 16 C-26.97905273 16.57967529 -26.95810547 17.15935059 -26.93652344 17.7565918 C-26.85303193 20.40004924 -26.80123847 23.0432288 -26.75 25.6875 C-26.69972656 27.05551758 -26.69972656 27.05551758 -26.6484375 28.45117188 C-26.58583159 32.75532823 -26.58725056 35.29537135 -28.80078125 39.07421875 C-31.89455464 41.78333115 -33.91473592 42.1433426 -38 42 C-40.9375 40 -40.9375 40 -43 37 C-43.63534983 32.97611774 -43.64970619 30.97455929 -41.375 27.5625 C-38.36257342 25.58064041 -36.54231061 25.61496624 -33 26 C-32.34 26.33 -31.68 26.66 -31 27 C-31 20.4 -31 13.8 -31 7 C-28.56625 6.401875 -26.1325 5.80375 -23.625 5.1875 C-18.05452091 3.81281944 -12.55901524 2.3340939 -7.11328125 0.515625 C-4.68507333 -0.07683978 -2.4913892 -0.03390694 0 0 Z " fill="#5E6578" transform="translate(64,24)"/>
<path d="M0 0 C5.37987899 1.54999221 9.0345641 6.62754203 12.71972656 10.61303711 C14.49679894 12.47781907 16.27536766 14.3411766 18.05566406 16.20288086 C18.83216309 17.03553467 19.60866211 17.86818848 20.40869141 18.72607422 C22.19776753 20.73518442 22.19776753 20.73518442 24.34472656 21.67553711 C22.92169269 26.89332799 19.41463076 30.30358975 15.34472656 33.67553711 C13.85972656 34.17053711 13.85972656 34.17053711 12.34472656 34.67553711 C9.36912193 31.72463102 6.39679978 28.77046964 3.42749023 25.81323242 C2.41667071 24.80744508 1.40495594 23.80255663 0.39233398 22.79858398 C-1.062092 21.35627228 -2.51327959 19.91077039 -3.96386719 18.46459961 C-4.83841553 17.59528809 -5.71296387 16.72597656 -6.61401367 15.83032227 C-9.25398112 13.04353208 -9.60884115 12.17700576 -9.96777344 8.30053711 C-9.65527344 4.67553711 -9.65527344 4.67553711 -8.15527344 2.23803711 C-5.39271949 0.51144089 -3.26384691 -0.06567768 0 0 Z " fill="#FE535C" transform="translate(90.6552734375,80.324462890625)"/>
<path d="M0 0 C0.99 0 1.98 0 3 0 C3.13539281 2.89740622 3.23426829 5.78845621 3.3125 8.6875 C3.3753418 9.91243164 3.3753418 9.91243164 3.43945312 11.16210938 C3.5288498 15.57830527 3.42576418 17.42772072 0.70703125 21.08203125 C-2 23 -2 23 -5.625 23 C-10.61768902 21.52068474 -10.61768902 21.52068474 -12 19 C-12.75912409 12.16788321 -12.75912409 12.16788321 -10.375 8.5 C-7.36278626 6.59754922 -5.50337981 6.61919785 -2 7 C-1.34 7.33 -0.68 7.66 0 8 C0 5.36 0 2.72 0 0 Z " fill="#5D6173" transform="translate(61,38)"/>
<path d="M0 0 C0.33 0 0.66 0 1 0 C1.12117188 1.10730469 1.24234375 2.21460937 1.3671875 3.35546875 C3.00267472 9.90174431 8.358086 13.8701558 13.125 18.3125 C14.98814636 20.07270308 16.84526391 21.83931691 18.6953125 23.61328125 C19.52047363 24.38454346 20.34563477 25.15580566 21.19580078 25.95043945 C23 28 23 28 23 31 C22.01 31.33 21.02 31.66 20 32 C17.02439537 29.04909391 14.05207322 26.09493253 11.08276367 23.13769531 C10.07194415 22.13190797 9.06022938 21.12701952 8.04760742 20.12304688 C6.59318144 18.68073517 5.14199385 17.23523328 3.69140625 15.7890625 C2.81685791 14.91975098 1.94230957 14.05043945 1.04125977 13.15478516 C-1.67589881 10.28651083 -1.9720624 9.5215019 -2.1875 5.5 C-2 2 -2 2 0 0 Z " fill="#EF4452" transform="translate(83,83)"/>
<path d="M0 0 C0 4.62 0 9.24 0 14 C-0.99 14 -1.98 14 -3 14 C-3 16.64 -3 19.28 -3 22 C-3.66 21.67 -4.32 21.34 -5 21 C-4.67 17.7 -4.34 14.4 -4 11 C-4.99 10.67 -5.98 10.34 -7 10 C-7 9.34 -7 8.68 -7 8 C-8.19238281 8.28875 -9.38476562 8.5775 -10.61328125 8.875 C-12.17964512 9.25017698 -13.74605372 9.62516726 -15.3125 10 C-16.09818359 10.19078125 -16.88386719 10.3815625 -17.69335938 10.578125 C-18.45068359 10.75859375 -19.20800781 10.9390625 -19.98828125 11.125 C-20.68477783 11.29257812 -21.38127441 11.46015625 -22.09887695 11.6328125 C-24 12 -24 12 -27 12 C-27 11.34 -27 10.68 -27 10 C-24.04283593 9.16247839 -21.084087 8.33069969 -18.125 7.5 C-16.86236328 7.14228516 -16.86236328 7.14228516 -15.57421875 6.77734375 C-14.76855469 6.55175781 -13.96289062 6.32617188 -13.1328125 6.09375 C-12.01737061 5.77954102 -12.01737061 5.77954102 -10.87939453 5.45898438 C-9 5 -9 5 -7 5 C-7 4.01 -7 3.02 -7 2 C-7.66 1.67 -8.32 1.34 -9 1 C-5.72921858 0.03087958 -3.60964568 0 0 0 Z " fill="#757E8E" transform="translate(64,24)"/>
<path d="M0 0 C3.50920408 1.09662627 4.87229183 1.94294776 7 4.9375 C8.0625 8.375 8.0625 8.375 8 11.9375 C5.13547492 15.7023044 3.62947937 16.78013016 -1 17.9375 C-1.33 12.9875 -1.66 8.0375 -2 2.9375 C-3.65 2.9375 -5.3 2.9375 -7 2.9375 C-4.53995787 0.57207487 -3.47516204 -0.07239921 0 0 Z " fill="#90D9F3" transform="translate(66,21.0625)"/>
<path d="M0 0 C2.4375 0.8125 2.4375 0.8125 4.4375 2.8125 C4.75 5.8125 4.75 5.8125 4.4375 8.8125 C1.21376323 10.96165785 0.17046326 11.19536803 -3.5625 10.8125 C-5.5625 8.8125 -5.5625 8.8125 -5.875 5.875 C-5.5625 2.8125 -5.5625 2.8125 -4.375 0.875 C-2.5625 -0.1875 -2.5625 -0.1875 0 0 Z " fill="#90DAF3" transform="translate(51.5625,13.1875)"/>
<path d="M0 0 C1.98 1.65 3.96 3.3 6 5 C5.34 6.32 4.68 7.64 4 9 C2.68 9 1.36 9 0 9 C-2.25 6.5 -2.25 6.5 -4 4 C-2.68 2.68 -1.36 1.36 0 0 Z " fill="#68646E" transform="translate(79,75)"/>
<path d="M0 0 C0 0.66 0 1.32 0 2 C-2.51974253 2.65035371 -5.04065935 3.29537493 -7.5625 3.9375 C-8.26697266 4.11990234 -8.97144531 4.30230469 -9.69726562 4.49023438 C-14.12137098 5.6115514 -18.47055438 6.43456329 -23 7 C-23 6.34 -23 5.68 -23 5 C-19.54253984 4.16301505 -16.08389511 3.33103324 -12.625 2.5 C-11.64015625 2.26152344 -10.6553125 2.02304687 -9.640625 1.77734375 C-8.69960938 1.55175781 -7.75859375 1.32617188 -6.7890625 1.09375 C-5.48509521 0.77954102 -5.48509521 0.77954102 -4.15478516 0.45898438 C-2 0 -2 0 0 0 Z " fill="#78C1E3" transform="translate(60,29)"/>
<path d="M0 0 C1.65 0.33 3.3 0.66 5 1 C4.34 2.32 3.68 3.64 3 5 C1.68 4.67 0.36 4.34 -1 4 C-0.67 2.68 -0.34 1.36 0 0 Z " fill="#757786" transform="translate(28,53)"/>
<path d="M0 0 C1.98 0.495 1.98 0.495 4 1 C3.67 2.32 3.34 3.64 3 5 C1.68 4.67 0.36 4.34 -1 4 C-0.67 2.68 -0.34 1.36 0 0 Z " fill="#787A88" transform="translate(56,48)"/>
</svg>
